<svg width="94" height="28" viewBox="0 0 94 28" fill="none" xmlns="http://www.w3.org/2000/svg">
<g clip-path="url(#clip0_551_6109)">
<path d="M12.5 0C6.81703 3.43812 7.49997 13.125 7.49997 13.125C7.49997 13.125 5 12.25 5 8.31252C2.01734 10.1285 0 13.619 0 17.5C0 23.299 4.47715 28 10 28C15.5229 28 20 23.299 20 17.5C19.9999 8.96876 12.5 7.21874 12.5 0ZM10.8784 24.382C8.86892 24.9081 6.83369 23.6241 6.33258 21.514C5.83158 19.4041 7.05441 17.267 9.06398 16.7409C13.9155 15.4709 14.5235 12.6062 14.5235 12.6062C14.5235 12.6062 16.9427 22.7944 10.8784 24.382Z" fill="url(#paint0_linear_551_6109)"/>
<path d="M27.0043 20H25.4347L29.9744 7.63636H31.5199L36.0597 20H34.4901L30.7955 9.59233H30.6989L27.0043 20ZM27.5838 15.1705H33.9105V16.4986H27.5838V15.1705ZM44.7468 10.7273C44.6744 10.1155 44.3806 9.64062 43.8654 9.30256C43.3503 8.96449 42.7184 8.79545 41.9698 8.79545C41.4225 8.79545 40.9435 8.884 40.533 9.06108C40.1265 9.23816 39.8086 9.48165 39.5792 9.79155C39.3538 10.1014 39.2411 10.4536 39.2411 10.848C39.2411 11.178 39.3196 11.4618 39.4766 11.6992C39.6375 11.9326 39.8428 12.1278 40.0923 12.2848C40.3419 12.4377 40.6035 12.5645 40.8771 12.6651C41.1508 12.7617 41.4023 12.8402 41.6317 12.9006L42.8874 13.2386C43.2094 13.3232 43.5676 13.4399 43.962 13.5888C44.3604 13.7377 44.7408 13.9409 45.103 14.1985C45.4692 14.4521 45.7711 14.7781 46.0085 15.1765C46.246 15.5749 46.3647 16.0639 46.3647 16.6435C46.3647 17.3116 46.1896 17.9152 45.8395 18.4545C45.4934 18.9938 44.9863 19.4225 44.3182 19.7404C43.6541 20.0584 42.8472 20.2173 41.8974 20.2173C41.012 20.2173 40.2453 20.0745 39.5973 19.7887C38.9534 19.503 38.4463 19.1045 38.076 18.5934C37.7098 18.0823 37.5025 17.4886 37.4542 16.8125H38.9996C39.0399 17.2794 39.1969 17.6657 39.4705 17.9716C39.7482 18.2734 40.0984 18.4988 40.521 18.6477C40.9476 18.7926 41.4064 18.8651 41.8974 18.8651C42.4689 18.8651 42.982 18.7725 43.4368 18.5874C43.8916 18.3982 44.2518 18.1366 44.5174 17.8026C44.783 17.4645 44.9158 17.0701 44.9158 16.6193C44.9158 16.2088 44.8011 15.8748 44.5717 15.6172C44.3423 15.3596 44.0405 15.1503 43.6662 14.9893C43.2919 14.8284 42.8874 14.6875 42.4528 14.5668L40.9315 14.1321C39.9656 13.8544 39.2009 13.458 38.6374 12.9428C38.074 12.4277 37.7923 11.7536 37.7923 10.9205C37.7923 10.2282 37.9794 9.62453 38.3537 9.10938C38.732 8.5902 39.2391 8.18774 39.875 7.90199C40.5149 7.61222 41.2293 7.46733 42.0181 7.46733C42.815 7.46733 43.5233 7.6102 44.1431 7.89595C44.7629 8.17767 45.2539 8.56404 45.6161 9.05504C45.9824 9.54605 46.1755 10.1035 46.1957 10.7273H44.7468ZM58.7751 11.5H57.278C57.1894 11.0694 57.0345 10.6911 56.8131 10.3651C56.5958 10.0391 56.3302 9.76539 56.0162 9.54403C55.7064 9.31866 55.3622 9.14962 54.9839 9.03693C54.6056 8.92424 54.2112 8.8679 53.8007 8.8679C53.0521 8.8679 52.374 9.05705 51.7662 9.43537C51.1626 9.81368 50.6816 10.3711 50.3234 11.1076C49.9693 11.8441 49.7922 12.7476 49.7922 13.8182C49.7922 14.8887 49.9693 15.7923 50.3234 16.5288C50.6816 17.2653 51.1626 17.8227 51.7662 18.201C52.374 18.5793 53.0521 18.7685 53.8007 18.7685C54.2112 18.7685 54.6056 18.7121 54.9839 18.5994C55.3622 18.4867 55.7064 18.3197 56.0162 18.0984C56.3302 17.873 56.5958 17.5973 56.8131 17.2713C57.0345 16.9413 57.1894 16.563 57.278 16.1364H58.7751C58.6624 16.7682 58.4572 17.3337 58.1594 17.8327C57.8615 18.3318 57.4913 18.7564 57.0486 19.1065C56.6059 19.4527 56.1088 19.7163 55.5574 19.8974C55.0101 20.0785 54.4245 20.169 53.8007 20.169C52.7462 20.169 51.8085 19.9115 50.9875 19.3963C50.1665 18.8812 49.5205 18.1487 49.0496 17.1989C48.5787 16.2491 48.3433 15.1222 48.3433 13.8182C48.3433 12.5142 48.5787 11.3873 49.0496 10.4375C49.5205 9.48769 50.1665 8.75521 50.9875 8.24006C51.8085 7.7249 52.7462 7.46733 53.8007 7.46733C54.4245 7.46733 55.0101 7.55788 55.5574 7.73899C56.1088 7.9201 56.6059 8.18572 57.0486 8.53587C57.4913 8.88198 57.8615 9.30457 58.1594 9.80362C58.4572 10.2987 58.6624 10.8641 58.7751 11.5ZM61.1944 20V7.63636H68.6561V8.96449H62.6916V13.142H68.2697V14.4702H62.6916V18.6719H68.7527V20H61.1944ZM81.1586 7.63636V20H79.7097L72.9725 10.2926H72.8517V20H71.3546V7.63636H72.8034L79.5648 17.3679H79.6855V7.63636H81.1586ZM83.4782 8.96449V7.63636H92.751V8.96449H88.8632V20H87.366V8.96449H83.4782Z" fill="black"/>
<path d="M27.0043 20V20.5H27.3573L27.4755 20.1673L27.0043 20ZM25.4347 20L24.9653 19.8277L24.7184 20.5H25.4347V20ZM29.9744 7.63636V7.13636H29.6254L29.5051 7.46402L29.9744 7.63636ZM31.5199 7.63636L31.9892 7.46402L31.8689 7.13636H31.5199V7.63636ZM36.0597 20V20.5H36.7759L36.529 19.8277L36.0597 20ZM34.4901 20L34.0189 20.1673L34.137 20.5H34.4901V20ZM30.7955 9.59233L31.2666 9.42506L31.1485 9.09233H30.7955V9.59233ZM30.6989 9.59233V9.09233H30.3458L30.2277 9.42506L30.6989 9.59233ZM27.5838 15.1705V14.6705H27.0838V15.1705H27.5838ZM33.9105 15.1705H34.4105V14.6705H33.9105V15.1705ZM33.9105 16.4986V16.9986H34.4105V16.4986H33.9105ZM27.5838 16.4986H27.0838V16.9986H27.5838V16.4986ZM27.0043 19.5H25.4347V20.5H27.0043V19.5ZM25.904 20.1723L30.4438 7.80871L29.5051 7.46402L24.9653 19.8277L25.904 20.1723ZM29.9744 8.13636H31.5199V7.13636H29.9744V8.13636ZM31.0505 7.80871L35.5903 20.1723L36.529 19.8277L31.9892 7.46402L31.0505 7.80871ZM36.0597 19.5H34.4901V20.5H36.0597V19.5ZM34.9612 19.8327L31.2666 9.42506L30.3243 9.7596L34.0189 20.1673L34.9612 19.8327ZM30.7955 9.09233H30.6989V10.0923H30.7955V9.09233ZM30.2277 9.42506L26.5331 19.8327L27.4755 20.1673L31.1701 9.7596L30.2277 9.42506ZM27.5838 15.6705H33.9105V14.6705H27.5838V15.6705ZM33.4105 15.1705V16.4986H34.4105V15.1705H33.4105ZM33.9105 15.9986H27.5838V16.9986H33.9105V15.9986ZM28.0838 16.4986V15.1705H27.0838V16.4986H28.0838ZM44.7468 10.7273L44.2503 10.7861L44.3025 11.2273H44.7468V10.7273ZM43.8654 9.30256L43.5911 9.72058L43.5911 9.72058L43.8654 9.30256ZM40.533 9.06108L40.335 8.60197L40.3333 8.60269L40.533 9.06108ZM39.5792 9.79155L39.1773 9.49405L39.1748 9.49746L39.5792 9.79155ZM39.4766 11.6992L39.0594 11.975L39.065 11.9831L39.4766 11.6992ZM40.0923 12.2848L39.8261 12.7081L39.831 12.7111L40.0923 12.2848ZM40.8771 12.6651L40.7046 13.1345L40.7107 13.1366L40.8771 12.6651ZM41.6317 12.9006L41.7617 12.4178L41.759 12.417L41.6317 12.9006ZM42.8874 13.2386L42.7574 13.7215L42.7605 13.7223L42.8874 13.2386ZM43.962 13.5888L43.7854 14.0566L43.787 14.0571L43.962 13.5888ZM45.103 14.1985L44.8132 14.606L44.8184 14.6096L45.103 14.1985ZM46.0085 15.1765L46.438 14.9205L46.438 14.9205L46.0085 15.1765ZM45.8395 18.4545L45.4201 18.1823L45.4187 18.1845L45.8395 18.4545ZM44.3182 19.7404L44.1033 19.2889L44.1023 19.2894L44.3182 19.7404ZM39.5973 19.7887L39.3945 20.2457L39.3956 20.2462L39.5973 19.7887ZM38.076 18.5934L37.6696 18.8846L37.6711 18.8867L38.076 18.5934ZM37.4542 16.8125V16.3125H36.9172L36.9555 16.8481L37.4542 16.8125ZM38.9996 16.8125L39.4978 16.7696L39.4584 16.3125H38.9996V16.8125ZM39.4705 17.9716L39.0979 18.305L39.1026 18.3101L39.4705 17.9716ZM40.521 18.6477L40.3548 19.1193L40.3602 19.1212L40.521 18.6477ZM43.4368 18.5874L43.6253 19.0505L43.6288 19.049L43.4368 18.5874ZM44.5174 17.8026L44.9088 18.1138L44.9106 18.1115L44.5174 17.8026ZM44.5717 15.6172L44.9451 15.2846L44.9451 15.2846L44.5717 15.6172ZM43.6662 14.9893L43.4686 15.4487L43.4686 15.4487L43.6662 14.9893ZM42.4528 14.5668L42.3154 15.0475L42.3189 15.0485L42.4528 14.5668ZM40.9315 14.1321L40.7933 14.6126L40.7941 14.6129L40.9315 14.1321ZM38.6374 12.9428L38.3 13.3118L38.3 13.3118L38.6374 12.9428ZM38.3537 9.10938L37.9496 8.81492L37.9492 8.81548L38.3537 9.10938ZM39.875 7.90199L40.0799 8.35806L40.0813 8.35747L39.875 7.90199ZM44.1431 7.89595L43.9338 8.35002L43.9362 8.35113L44.1431 7.89595ZM45.6161 9.05504L45.2138 9.35187L45.2153 9.35399L45.6161 9.05504ZM46.1957 10.7273V11.2273H46.7121L46.6954 10.7112L46.1957 10.7273ZM45.2433 10.6685C45.1535 9.91 44.7783 9.30362 44.1397 8.88453L43.5911 9.72058C43.9828 9.97763 44.1952 10.3211 44.2503 10.7861L45.2433 10.6685ZM44.1397 8.88453C43.5271 8.48246 42.7947 8.29545 41.9698 8.29545V9.29545C42.6421 9.29545 43.1735 9.44652 43.5911 9.72058L44.1397 8.88453ZM41.9698 8.29545C41.3692 8.29545 40.8204 8.39258 40.335 8.60197L40.7311 9.52018C41.0667 9.37541 41.4757 9.29545 41.9698 9.29545V8.29545ZM40.3333 8.60269C39.8587 8.80944 39.4662 9.10376 39.1773 9.49406L39.9811 10.089C40.1509 9.85955 40.3943 9.66688 40.7327 9.51947L40.3333 8.60269ZM39.1748 9.49746C38.8854 9.89546 38.7411 10.3512 38.7411 10.848H39.7411C39.7411 10.556 39.8223 10.3074 39.9836 10.0856L39.1748 9.49746ZM38.7411 10.848C38.7411 11.2601 38.8402 11.6433 39.0595 11.9749L39.8937 11.4235C39.799 11.2803 39.7411 11.096 39.7411 10.848H38.7411ZM39.065 11.9831C39.266 12.2746 39.5215 12.5164 39.8261 12.708L40.3586 11.8616C40.1641 11.7393 40.0091 11.5907 39.8882 11.4154L39.065 11.9831ZM39.831 12.7111C40.1086 12.8812 40.3999 13.0224 40.7046 13.1344L41.0497 12.1958C40.807 12.1066 40.5751 11.9943 40.3536 11.8585L39.831 12.7111ZM40.7107 13.1366C40.9946 13.2368 41.2594 13.3196 41.5045 13.3841L41.759 12.417C41.5453 12.3608 41.3071 12.2866 41.0435 12.1936L40.7107 13.1366ZM41.5018 13.3834L42.7574 13.7214L43.0174 12.7558L41.7617 12.4178L41.5018 13.3834ZM42.7605 13.7223C43.0619 13.8014 43.4032 13.9122 43.7854 14.0565L44.1386 13.121C43.732 12.9675 43.3569 12.8449 43.0144 12.755L42.7605 13.7223ZM43.787 14.0571C44.1429 14.1902 44.4848 14.3725 44.8132 14.606L45.3927 13.791C44.9967 13.5094 44.578 13.2852 44.137 13.1204L43.787 14.0571ZM44.8184 14.6096C45.1233 14.8207 45.3767 15.0929 45.579 15.4325L46.438 14.9205C46.1655 14.4632 45.8151 14.0834 45.3876 13.7874L44.8184 14.6096ZM45.579 15.4325C45.7601 15.7364 45.8647 16.1318 45.8647 16.6435H46.8647C46.8647 15.9961 46.7318 15.4135 46.438 14.9205L45.579 15.4325ZM45.8647 16.6435C45.8647 17.2189 45.7155 17.7273 45.4201 18.1823L46.2589 18.7268C46.6637 18.1032 46.8647 17.4042 46.8647 16.6435H45.8647ZM45.4187 18.1845C45.1303 18.6338 44.7005 19.0047 44.1033 19.2889L44.533 20.1919C45.2721 19.8402 45.8564 19.3539 46.2603 18.7246L45.4187 18.1845ZM44.1023 19.2894C43.5222 19.5672 42.7933 19.7173 41.8974 19.7173V20.7173C42.901 20.7173 43.786 20.5496 44.5341 20.1914L44.1023 19.2894ZM41.8974 19.7173C41.0646 19.7173 40.3697 19.5829 39.7991 19.3312L39.3956 20.2462C40.1209 20.5661 40.9593 20.7173 41.8974 20.7173V19.7173ZM39.8001 19.3317C39.2272 19.0775 38.7936 18.7317 38.4809 18.3001L37.6711 18.8867C38.0989 19.4773 38.6795 19.9285 39.3945 20.2457L39.8001 19.3317ZM38.4824 18.3022C38.1742 17.8719 37.9952 17.3684 37.9529 16.7769L36.9555 16.8481C37.0098 17.6089 37.2453 18.2926 37.6696 18.8846L38.4824 18.3022ZM37.4542 17.3125H38.9996V16.3125H37.4542V17.3125ZM38.5015 16.8554C38.5497 17.4142 38.7421 17.9073 39.0979 18.305L39.8431 17.6382C39.6517 17.4242 39.5301 17.1445 39.4978 16.7696L38.5015 16.8554ZM39.1026 18.3101C39.4406 18.6776 39.8623 18.9458 40.3548 19.1193L40.6871 18.1761C40.3344 18.0519 40.0558 17.8693 39.8385 17.6331L39.1026 18.3101ZM40.3602 19.1212C40.843 19.2852 41.3566 19.3651 41.8974 19.3651V18.3651C41.4562 18.3651 41.0521 18.3001 40.6817 18.1743L40.3602 19.1212ZM41.8974 19.3651C42.5231 19.3651 43.1017 19.2636 43.6253 19.0505L43.2483 18.1243C42.8623 18.2814 42.4147 18.3651 41.8974 18.3651V19.3651ZM43.6288 19.049C44.1495 18.8324 44.5829 18.5236 44.9088 18.1138L44.126 17.4914C43.9207 17.7496 43.6336 17.964 43.2448 18.1257L43.6288 19.049ZM44.9106 18.1115C45.2489 17.6808 45.4158 17.1763 45.4158 16.6193H44.4158C44.4158 16.9639 44.3171 17.2482 44.1242 17.4936L44.9106 18.1115ZM45.4158 16.6193C45.4158 16.1108 45.2711 15.6506 44.9451 15.2846L44.1984 15.9497C44.3312 16.0989 44.4158 16.3068 44.4158 16.6193H45.4158ZM44.9451 15.2846C44.659 14.9634 44.2932 14.7147 43.8637 14.53L43.4686 15.4487C43.7878 15.5859 44.0256 15.7558 44.1984 15.9497L44.9451 15.2846ZM43.8637 14.53C43.4667 14.3592 43.0407 14.2111 42.5866 14.085L42.3189 15.0485C42.7342 15.1639 43.1171 15.2975 43.4686 15.4487L43.8637 14.53ZM42.5901 14.086L41.0688 13.6513L40.7941 14.6129L42.3154 15.0475L42.5901 14.086ZM41.0696 13.6516C40.1553 13.3887 39.4663 13.0231 38.9748 12.5738L38.3 13.3118C38.9355 13.8928 39.7758 14.3201 40.7933 14.6126L41.0696 13.6516ZM38.9748 12.5738C38.5251 12.1626 38.2923 11.6275 38.2923 10.9205H37.2923C37.2923 11.8796 37.6229 12.6927 38.3 13.3118L38.9748 12.5738ZM38.2923 10.9205C38.2923 10.3241 38.4514 9.82547 38.7582 9.40327L37.9492 8.81548C37.5074 9.42358 37.2923 10.1323 37.2923 10.9205H38.2923ZM38.7578 9.40383C39.0806 8.96085 39.5164 8.6113 40.0799 8.35806L39.6701 7.44592C38.9618 7.76418 38.3834 8.21955 37.9496 8.81492L38.7578 9.40383ZM40.0813 8.35747C40.6488 8.10045 41.2916 7.96733 42.0181 7.96733V6.96733C41.1669 6.96733 40.381 7.12398 39.6687 7.44651L40.0813 8.35747ZM42.0181 7.96733C42.7547 7.96733 43.3897 8.09919 43.9338 8.35002L44.3525 7.44189C43.6569 7.12121 42.8752 6.96733 42.0181 6.96733V7.96733ZM43.9362 8.35113C44.4876 8.60176 44.9078 8.93711 45.2138 9.35187L46.0185 8.75822C45.6 8.19096 45.0382 7.75359 44.35 7.44077L43.9362 8.35113ZM45.2153 9.35399C45.5192 9.76141 45.679 10.2197 45.6959 10.7434L46.6954 10.7112C46.6721 9.98723 46.4455 9.33068 46.0169 8.75609L45.2153 9.35399ZM46.1957 10.2273H44.7468V11.2273H46.1957V10.2273ZM58.7751 11.5V12H59.3715L59.2675 11.4128L58.7751 11.5ZM57.278 11.5L56.7882 11.6007L56.8703 12H57.278V11.5ZM56.8131 10.3651L56.3971 10.6424L56.3995 10.6459L56.8131 10.3651ZM56.0162 9.54403L55.7221 9.94845L55.7281 9.95266L56.0162 9.54403ZM54.9839 9.03693L54.8412 9.51612L54.8412 9.51612L54.9839 9.03693ZM51.7662 9.43537L51.502 9.0109L51.5007 9.01169L51.7662 9.43537ZM50.3234 11.1076L49.8738 10.8889L49.8728 10.8909L50.3234 11.1076ZM50.3234 16.5288L49.8728 16.7455L49.8738 16.7474L50.3234 16.5288ZM51.7662 18.201L51.5007 18.6247L51.502 18.6255L51.7662 18.201ZM54.9839 18.5994L54.8412 18.1202L54.8412 18.1202L54.9839 18.5994ZM56.0162 18.0984L56.3069 18.5052L56.3079 18.5045L56.0162 18.0984ZM56.8131 17.2713L56.3979 16.9928L56.3971 16.994L56.8131 17.2713ZM57.278 16.1364V15.6364H56.8711L56.7884 16.0348L57.278 16.1364ZM58.7751 16.1364L59.2674 16.2242L59.3722 15.6364H58.7751V16.1364ZM58.1594 17.8327L57.73 17.5765L57.73 17.5765L58.1594 17.8327ZM57.0486 19.1065L57.3565 19.5004L57.3587 19.4987L57.0486 19.1065ZM55.5574 19.8974L55.4014 19.4223L55.4004 19.4227L55.5574 19.8974ZM50.9875 19.3963L50.7217 19.8198L50.7217 19.8198L50.9875 19.3963ZM49.0496 17.1989L49.4976 16.9768L49.4976 16.9768L49.0496 17.1989ZM49.0496 10.4375L48.6017 10.2154L49.0496 10.4375ZM55.5574 7.73899L55.4004 8.21368L55.4014 8.21402L55.5574 7.73899ZM57.0486 8.53587L56.7384 8.92804L56.7406 8.92977L57.0486 8.53587ZM58.1594 9.80362L57.73 10.0599L57.7309 10.0614L58.1594 9.80362ZM58.7751 11H57.278V12H58.7751V11ZM57.7677 11.3993C57.6675 10.9116 57.4892 10.4706 57.2268 10.0842L56.3995 10.6459C56.5798 10.9115 56.7114 11.2271 56.7882 11.6007L57.7677 11.3993ZM57.2291 10.0877C56.9783 9.71149 56.6697 9.39298 56.3044 9.13541L55.7281 9.95266C55.9907 10.1378 56.2132 10.3666 56.3971 10.6424L57.2291 10.0877ZM56.3103 9.13967C55.9532 8.87994 55.5576 8.68612 55.1267 8.55774L54.8412 9.51612C55.1668 9.61313 55.4595 9.75737 55.7222 9.9484L56.3103 9.13967ZM55.1267 8.55774C54.7002 8.43071 54.2576 8.3679 53.8007 8.3679V9.3679C54.1648 9.3679 54.511 9.41778 54.8412 9.51612L55.1267 8.55774ZM53.8007 8.3679C52.9632 8.3679 52.1927 8.5809 51.502 9.0109L52.0305 9.85984C52.5552 9.5332 53.141 9.3679 53.8007 9.3679V8.3679ZM51.5007 9.01169C50.8064 9.44683 50.2667 10.0811 49.8738 10.8889L50.7731 11.3263C51.0965 10.6611 51.5187 10.1805 52.0318 9.85905L51.5007 9.01169ZM49.8728 10.8909C49.4777 11.7126 49.2922 12.6949 49.2922 13.8182H50.2922C50.2922 12.8003 50.4608 11.9756 50.774 11.3243L49.8728 10.8909ZM49.2922 13.8182C49.2922 14.9414 49.4777 15.9238 49.8728 16.7454L50.774 16.3121C50.4608 15.6608 50.2922 14.836 50.2922 13.8182H49.2922ZM49.8738 16.7474C50.2667 17.5553 50.8064 18.1895 51.5007 18.6247L52.0318 17.7773C51.5187 17.4558 51.0965 16.9752 50.7731 16.3101L49.8738 16.7474ZM51.502 18.6255C52.1927 19.0555 52.9632 19.2685 53.8007 19.2685V18.2685C53.141 18.2685 52.5552 18.1032 52.0305 17.7765L51.502 18.6255ZM53.8007 19.2685C54.2576 19.2685 54.7002 19.2057 55.1267 19.0786L54.8412 18.1202C54.511 18.2186 54.1648 18.2685 53.8007 18.2685V19.2685ZM55.1267 19.0786C55.556 18.9507 55.9504 18.7599 56.3069 18.5052L55.7256 17.6915C55.4623 17.8796 55.1685 18.0227 54.8412 18.1202L55.1267 19.0786ZM56.3079 18.5045C56.6713 18.2436 56.9789 17.924 57.2291 17.5487L56.3971 16.994C56.2127 17.2706 55.989 17.5024 55.7246 17.6922L56.3079 18.5045ZM57.2284 17.5498C57.489 17.1612 57.6671 16.7217 57.7675 16.238L56.7884 16.0348C56.7117 16.4043 56.5799 16.7213 56.3979 16.9928L57.2284 17.5498ZM57.278 16.6364H58.7751V15.6364H57.278V16.6364ZM58.2829 16.0486C58.1797 16.6272 57.9938 17.1345 57.73 17.5765L58.5887 18.089C58.9206 17.5329 59.1452 16.9093 59.2674 16.2242L58.2829 16.0486ZM57.73 17.5765C57.4624 18.025 57.132 18.403 56.7384 18.7144L57.3587 19.4987C57.8505 19.1097 58.2607 18.6386 58.5887 18.089L57.73 17.5765ZM56.7406 18.7126C56.345 19.022 55.8997 19.2587 55.4014 19.4223L55.7135 20.3724C56.318 20.1738 56.8668 19.8833 57.3565 19.5004L56.7406 18.7126ZM55.4004 19.4227C54.9077 19.5857 54.3755 19.669 53.8007 19.669V20.669C54.4735 20.669 55.1125 20.5713 55.7145 20.3721L55.4004 19.4227ZM53.8007 19.669C52.8317 19.669 51.9877 19.4336 51.2532 18.9728L50.7217 19.8198C51.6294 20.3893 52.6608 20.669 53.8007 20.669V19.669ZM51.2532 18.9728C50.5176 18.5112 49.9315 17.8519 49.4976 16.9768L48.6017 17.421C49.1096 18.4454 49.8153 19.2511 50.7217 19.8198L51.2532 18.9728ZM49.4976 16.9768C49.0679 16.1101 48.8433 15.0625 48.8433 13.8182H47.8433C47.8433 15.1818 48.0896 16.3881 48.6017 17.421L49.4976 16.9768ZM48.8433 13.8182C48.8433 12.5739 49.0679 11.5263 49.4976 10.6596L48.6017 10.2154C48.0896 11.2483 47.8433 12.4545 47.8433 13.8182H48.8433ZM49.4976 10.6596C49.9315 9.78444 50.5176 9.12515 51.2532 8.66359L50.7217 7.81652C49.8153 8.38527 49.1096 9.19094 48.6017 10.2154L49.4976 10.6596ZM51.2532 8.66359C51.9877 8.20277 52.8317 7.96733 53.8007 7.96733V6.96733C52.6608 6.96733 51.6294 7.24704 50.7217 7.81652L51.2532 8.66359ZM53.8007 7.96733C54.3755 7.96733 54.9077 8.05066 55.4004 8.21368L55.7145 7.2643C55.1125 7.06511 54.4735 6.96733 53.8007 6.96733V7.96733ZM55.4014 8.21402C55.8985 8.37731 56.3431 8.61539 56.7384 8.92803L57.3587 8.1437C56.8686 7.75606 56.3191 7.46289 55.7135 7.26396L55.4014 8.21402ZM56.7406 8.92977C57.133 9.23658 57.4627 9.61194 57.73 10.0599L58.5887 9.54739C58.2604 8.99719 57.8495 8.52739 57.3565 8.14196L56.7406 8.92977ZM57.7309 10.0614C57.9937 10.4981 58.1795 11.0046 58.2828 11.5872L59.2675 11.4128C59.1453 10.7237 58.9207 10.0992 58.5878 9.54586L57.7309 10.0614ZM61.1944 20H60.6944V20.5H61.1944V20ZM61.1944 7.63636V7.13636H60.6944V7.63636H61.1944ZM68.6561 7.63636H69.1561V7.13636H68.6561V7.63636ZM68.6561 8.96449V9.46449H69.1561V8.96449H68.6561ZM62.6916 8.96449V8.46449H62.1916V8.96449H62.6916ZM62.6916 13.142H62.1916V13.642H62.6916V13.142ZM68.2697 13.142H68.7697V12.642H68.2697V13.142ZM68.2697 14.4702V14.9702H68.7697V14.4702H68.2697ZM62.6916 14.4702V13.9702H62.1916V14.4702H62.6916ZM62.6916 18.6719H62.1916V19.1719H62.6916V18.6719ZM68.7527 18.6719H69.2527V18.1719H68.7527V18.6719ZM68.7527 20V20.5H69.2527V20H68.7527ZM61.6944 20V7.63636H60.6944V20H61.6944ZM61.1944 8.13636H68.6561V7.13636H61.1944V8.13636ZM68.1561 7.63636V8.96449H69.1561V7.63636H68.1561ZM68.6561 8.46449H62.6916V9.46449H68.6561V8.46449ZM62.1916 8.96449V13.142H63.1916V8.96449H62.1916ZM62.6916 13.642H68.2697V12.642H62.6916V13.642ZM67.7697 13.142V14.4702H68.7697V13.142H67.7697ZM68.2697 13.9702H62.6916V14.9702H68.2697V13.9702ZM62.1916 14.4702V18.6719H63.1916V14.4702H62.1916ZM62.6916 19.1719H68.7527V18.1719H62.6916V19.1719ZM68.2527 18.6719V20H69.2527V18.6719H68.2527ZM68.7527 19.5H61.1944V20.5H68.7527V19.5ZM81.1586 7.63636H81.6586V7.13636H81.1586V7.63636ZM81.1586 20V20.5H81.6586V20H81.1586ZM79.7097 20L79.2989 20.2851L79.4481 20.5H79.7097V20ZM72.9725 10.2926L73.3832 10.0075L73.2341 9.79261H72.9725V10.2926ZM72.8517 10.2926V9.79261H72.3517V10.2926H72.8517ZM72.8517 20V20.5H73.3517V20H72.8517ZM71.3546 20H70.8546V20.5H71.3546V20ZM71.3546 7.63636V7.13636H70.8546V7.63636H71.3546ZM72.8034 7.63636L73.2141 7.35107L73.0649 7.13636H72.8034V7.63636ZM79.5648 17.3679L79.1542 17.6532L79.3034 17.8679H79.5648V17.3679ZM79.6855 17.3679V17.8679H80.1855V17.3679H79.6855ZM79.6855 7.63636V7.13636H79.1855V7.63636H79.6855ZM80.6586 7.63636V20H81.6586V7.63636H80.6586ZM81.1586 19.5H79.7097V20.5H81.1586V19.5ZM80.1205 19.7149L73.3832 10.0075L72.5617 10.5777L79.2989 20.2851L80.1205 19.7149ZM72.9725 9.79261H72.8517V10.7926H72.9725V9.79261ZM72.3517 10.2926V20H73.3517V10.2926H72.3517ZM72.8517 19.5H71.3546V20.5H72.8517V19.5ZM71.8546 20V7.63636H70.8546V20H71.8546ZM71.3546 8.13636H72.8034V7.13636H71.3546V8.13636ZM72.3928 7.92166L79.1542 17.6532L79.9754 17.0826L73.2141 7.35107L72.3928 7.92166ZM79.5648 17.8679H79.6855V16.8679H79.5648V17.8679ZM80.1855 17.3679V7.63636H79.1855V17.3679H80.1855ZM79.6855 8.13636H81.1586V7.13636H79.6855V8.13636ZM83.4782 8.96449H82.9782V9.46449H83.4782V8.96449ZM83.4782 7.63636V7.13636H82.9782V7.63636H83.4782ZM92.751 7.63636H93.251V7.13636H92.751V7.63636ZM92.751 8.96449V9.46449H93.251V8.96449H92.751ZM88.8632 8.96449V8.46449H88.3632V8.96449H88.8632ZM88.8632 20V20.5H89.3632V20H88.8632ZM87.366 20H86.866V20.5H87.366V20ZM87.366 8.96449H87.866V8.46449H87.366V8.96449ZM83.9782 8.96449V7.63636H82.9782V8.96449H83.9782ZM83.4782 8.13636H92.751V7.13636H83.4782V8.13636ZM92.251 7.63636V8.96449H93.251V7.63636H92.251ZM92.751 8.46449H88.8632V9.46449H92.751V8.46449ZM88.3632 8.96449V20H89.3632V8.96449H88.3632ZM88.8632 19.5H87.366V20.5H88.8632V19.5ZM87.866 20V8.96449H86.866V20H87.866ZM87.366 8.46449H83.4782V9.46449H87.366V8.46449Z" fill="black"/>
</g>
<defs>
<linearGradient id="paint0_linear_551_6109" x1="17.5" y1="-1.19433e-06" x2="-4.18563" y2="20.885" gradientUnits="userSpaceOnUse">
<stop stop-color="#507AE5"/>
<stop offset="1" stop-color="#4B50E6"/>
</linearGradient>
<clipPath id="clip0_551_6109">
<rect width="94" height="28" fill="white"/>
</clipPath>
</defs>
</svg>
