<svg width="20" height="28" viewBox="0 0 20 28" fill="none" xmlns="http://www.w3.org/2000/svg">
<path d="M12.5 0C6.81703 3.43812 7.49997 13.125 7.49997 13.125C7.49997 13.125 5 12.25 5 8.31252C2.01734 10.1285 0 13.619 0 17.5C0 23.299 4.47715 28 10 28C15.5229 28 20 23.299 20 17.5C19.9999 8.96876 12.5 7.21874 12.5 0ZM10.8784 24.382C8.86892 24.9081 6.83369 23.6241 6.33258 21.514C5.83158 19.4041 7.05441 17.267 9.06398 16.7409C13.9155 15.4709 14.5235 12.6062 14.5235 12.6062C14.5235 12.6062 16.9427 22.7944 10.8784 24.382Z" fill="url(#paint0_linear_519_20)"/>
<defs>
<linearGradient id="paint0_linear_519_20" x1="17.5" y1="-1.19433e-06" x2="-4.18563" y2="20.885" gradientUnits="userSpaceOnUse">
<stop stop-color="#507AE5"/>
<stop offset="1" stop-color="#4B50E6"/>
</linearGradient>
</defs>
</svg>
