<svg width="135" height="50" viewBox="0 0 135 50" fill="none" xmlns="http://www.w3.org/2000/svg">
<path d="M28.5 15C22.817 18.4381 23.5 28.125 23.5 28.125C23.5 28.125 21 27.25 21 23.3125C18.0173 25.1285 16 28.619 16 32.5C16 38.299 20.4771 43 26 43C31.5229 43 36 38.299 36 32.5C35.9999 23.9688 28.5 22.2187 28.5 15ZM26.8784 39.382C24.8689 39.9081 22.8337 38.6241 22.3326 36.514C21.8316 34.4041 23.0544 32.267 25.064 31.7409C29.9155 30.4709 30.5235 27.6062 30.5235 27.6062C30.5235 27.6062 32.9427 37.7944 26.8784 39.382Z" fill="url(#paint0_linear_714_206)"/>
<path d="M43.0043 35H41.4347L45.9744 22.6364H47.5199L52.0597 35H50.4901L46.7955 24.5923H46.6989L43.0043 35ZM43.5838 30.1705H49.9105V31.4986H43.5838V30.1705ZM60.7468 25.7273C60.6744 25.1155 60.3806 24.6406 59.8654 24.3026C59.3503 23.9645 58.7184 23.7955 57.9698 23.7955C57.4225 23.7955 56.9435 23.884 56.533 24.0611C56.1265 24.2382 55.8086 24.4817 55.5792 24.7915C55.3538 25.1014 55.2411 25.4536 55.2411 25.848C55.2411 26.178 55.3196 26.4618 55.4766 26.6992C55.6375 26.9326 55.8428 27.1278 56.0923 27.2848C56.3419 27.4377 56.6035 27.5645 56.8771 27.6651C57.1508 27.7617 57.4023 27.8402 57.6317 27.9006L58.8874 28.2386C59.2094 28.3232 59.5676 28.4399 59.962 28.5888C60.3604 28.7377 60.7408 28.9409 61.103 29.1985C61.4692 29.4521 61.7711 29.7781 62.0085 30.1765C62.246 30.5749 62.3647 31.0639 62.3647 31.6435C62.3647 32.3116 62.1896 32.9152 61.8395 33.4545C61.4934 33.9938 60.9863 34.4225 60.3182 34.7404C59.6541 35.0584 58.8472 35.2173 57.8974 35.2173C57.012 35.2173 56.2453 35.0745 55.5973 34.7887C54.9534 34.503 54.4463 34.1045 54.076 33.5934C53.7098 33.0823 53.5025 32.4886 53.4542 31.8125H54.9996C55.0399 32.2794 55.1969 32.6657 55.4705 32.9716C55.7482 33.2734 56.0984 33.4988 56.521 33.6477C56.9476 33.7926 57.4064 33.8651 57.8974 33.8651C58.4689 33.8651 58.982 33.7725 59.4368 33.5874C59.8916 33.3982 60.2518 33.1366 60.5174 32.8026C60.783 32.4645 60.9158 32.0701 60.9158 31.6193C60.9158 31.2088 60.8011 30.8748 60.5717 30.6172C60.3423 30.3596 60.0405 30.1503 59.6662 29.9893C59.2919 29.8284 58.8874 29.6875 58.4528 29.5668L56.9315 29.1321C55.9656 28.8544 55.2009 28.458 54.6374 27.9428C54.074 27.4277 53.7923 26.7536 53.7923 25.9205C53.7923 25.2282 53.9794 24.6245 54.3537 24.1094C54.732 23.5902 55.2391 23.1877 55.875 22.902C56.5149 22.6122 57.2293 22.4673 58.0181 22.4673C58.815 22.4673 59.5233 22.6102 60.1431 22.896C60.7629 23.1777 61.2539 23.564 61.6161 24.055C61.9824 24.546 62.1755 25.1035 62.1957 25.7273H60.7468ZM74.7751 26.5H73.278C73.1894 26.0694 73.0345 25.6911 72.8131 25.3651C72.5958 25.0391 72.3302 24.7654 72.0162 24.544C71.7064 24.3187 71.3622 24.1496 70.9839 24.0369C70.6056 23.9242 70.2112 23.8679 69.8007 23.8679C69.0521 23.8679 68.374 24.0571 67.7662 24.4354C67.1626 24.8137 66.6816 25.3711 66.3234 26.1076C65.9693 26.8441 65.7922 27.7476 65.7922 28.8182C65.7922 29.8887 65.9693 30.7923 66.3234 31.5288C66.6816 32.2653 67.1626 32.8227 67.7662 33.201C68.374 33.5793 69.0521 33.7685 69.8007 33.7685C70.2112 33.7685 70.6056 33.7121 70.9839 33.5994C71.3622 33.4867 71.7064 33.3197 72.0162 33.0984C72.3302 32.873 72.5958 32.5973 72.8131 32.2713C73.0345 31.9413 73.1894 31.563 73.278 31.1364H74.7751C74.6624 31.7682 74.4572 32.3337 74.1594 32.8327C73.8615 33.3318 73.4913 33.7564 73.0486 34.1065C72.6059 34.4527 72.1088 34.7163 71.5574 34.8974C71.0101 35.0785 70.4245 35.169 69.8007 35.169C68.7462 35.169 67.8085 34.9115 66.9875 34.3963C66.1665 33.8812 65.5205 33.1487 65.0496 32.1989C64.5787 31.2491 64.3433 30.1222 64.3433 28.8182C64.3433 27.5142 64.5787 26.3873 65.0496 25.4375C65.5205 24.4877 66.1665 23.7552 66.9875 23.2401C67.8085 22.7249 68.7462 22.4673 69.8007 22.4673C70.4245 22.4673 71.0101 22.5579 71.5574 22.739C72.1088 22.9201 72.6059 23.1857 73.0486 23.5359C73.4913 23.882 73.8615 24.3046 74.1594 24.8036C74.4572 25.2987 74.6624 25.8641 74.7751 26.5ZM77.1944 35V22.6364H84.6561V23.9645H78.6916V28.142H84.2697V29.4702H78.6916V33.6719H84.7527V35H77.1944ZM97.1586 22.6364V35H95.7097L88.9725 25.2926H88.8517V35H87.3546V22.6364H88.8034L95.5648 32.3679H95.6855V22.6364H97.1586ZM99.4782 23.9645V22.6364H108.751V23.9645H104.863V35H103.366V23.9645H99.4782Z" fill="black"/>
<path d="M43.0043 35V35.5H43.3573L43.4755 35.1673L43.0043 35ZM41.4347 35L40.9653 34.8277L40.7184 35.5H41.4347V35ZM45.9744 22.6364V22.1364H45.6254L45.5051 22.464L45.9744 22.6364ZM47.5199 22.6364L47.9892 22.464L47.8689 22.1364H47.5199V22.6364ZM52.0597 35V35.5H52.7759L52.529 34.8277L52.0597 35ZM50.4901 35L50.0189 35.1673L50.137 35.5H50.4901V35ZM46.7955 24.5923L47.2666 24.4251L47.1485 24.0923H46.7955V24.5923ZM46.6989 24.5923V24.0923H46.3458L46.2277 24.4251L46.6989 24.5923ZM43.5838 30.1705V29.6705H43.0838V30.1705H43.5838ZM49.9105 30.1705H50.4105V29.6705H49.9105V30.1705ZM49.9105 31.4986V31.9986H50.4105V31.4986H49.9105ZM43.5838 31.4986H43.0838V31.9986H43.5838V31.4986ZM43.0043 34.5H41.4347V35.5H43.0043V34.5ZM41.904 35.1723L46.4438 22.8087L45.5051 22.464L40.9653 34.8277L41.904 35.1723ZM45.9744 23.1364H47.5199V22.1364H45.9744V23.1364ZM47.0505 22.8087L51.5903 35.1723L52.529 34.8277L47.9892 22.464L47.0505 22.8087ZM52.0597 34.5H50.4901V35.5H52.0597V34.5ZM50.9612 34.8327L47.2666 24.4251L46.3243 24.7596L50.0189 35.1673L50.9612 34.8327ZM46.7955 24.0923H46.6989V25.0923H46.7955V24.0923ZM46.2277 24.4251L42.5331 34.8327L43.4755 35.1673L47.1701 24.7596L46.2277 24.4251ZM43.5838 30.6705H49.9105V29.6705H43.5838V30.6705ZM49.4105 30.1705V31.4986H50.4105V30.1705H49.4105ZM49.9105 30.9986H43.5838V31.9986H49.9105V30.9986ZM44.0838 31.4986V30.1705H43.0838V31.4986H44.0838ZM60.7468 25.7273L60.2503 25.7861L60.3025 26.2273H60.7468V25.7273ZM59.8654 24.3026L59.5911 24.7206L59.5911 24.7206L59.8654 24.3026ZM56.533 24.0611L56.335 23.602L56.3333 23.6027L56.533 24.0611ZM55.5792 24.7915L55.1773 24.494L55.1748 24.4975L55.5792 24.7915ZM55.4766 26.6992L55.0594 26.975L55.065 26.9831L55.4766 26.6992ZM56.0923 27.2848L55.8261 27.7081L55.831 27.7111L56.0923 27.2848ZM56.8771 27.6651L56.7046 28.1345L56.7107 28.1366L56.8771 27.6651ZM57.6317 27.9006L57.7617 27.4178L57.759 27.417L57.6317 27.9006ZM58.8874 28.2386L58.7574 28.7215L58.7605 28.7223L58.8874 28.2386ZM59.962 28.5888L59.7854 29.0566L59.787 29.0571L59.962 28.5888ZM61.103 29.1985L60.8132 29.606L60.8184 29.6096L61.103 29.1985ZM62.0085 30.1765L62.438 29.9205L62.438 29.9205L62.0085 30.1765ZM61.8395 33.4545L61.4201 33.1823L61.4187 33.1845L61.8395 33.4545ZM60.3182 34.7404L60.1033 34.2889L60.1023 34.2894L60.3182 34.7404ZM55.5973 34.7887L55.3945 35.2457L55.3956 35.2462L55.5973 34.7887ZM54.076 33.5934L53.6696 33.8846L53.6711 33.8867L54.076 33.5934ZM53.4542 31.8125V31.3125H52.9172L52.9555 31.8481L53.4542 31.8125ZM54.9996 31.8125L55.4978 31.7696L55.4584 31.3125H54.9996V31.8125ZM55.4705 32.9716L55.0979 33.305L55.1026 33.3101L55.4705 32.9716ZM56.521 33.6477L56.3548 34.1193L56.3602 34.1212L56.521 33.6477ZM59.4368 33.5874L59.6253 34.0505L59.6288 34.049L59.4368 33.5874ZM60.5174 32.8026L60.9088 33.1138L60.9106 33.1115L60.5174 32.8026ZM60.5717 30.6172L60.9451 30.2846L60.9451 30.2846L60.5717 30.6172ZM59.6662 29.9893L59.4686 30.4487L59.4686 30.4487L59.6662 29.9893ZM58.4528 29.5668L58.3154 30.0475L58.3189 30.0485L58.4528 29.5668ZM56.9315 29.1321L56.7933 29.6126L56.7941 29.6129L56.9315 29.1321ZM54.6374 27.9428L54.3 28.3118L54.3 28.3118L54.6374 27.9428ZM54.3537 24.1094L53.9496 23.8149L53.9492 23.8155L54.3537 24.1094ZM55.875 22.902L56.0799 23.3581L56.0813 23.3575L55.875 22.902ZM60.1431 22.896L59.9338 23.35L59.9362 23.3511L60.1431 22.896ZM61.6161 24.055L61.2138 24.3519L61.2153 24.354L61.6161 24.055ZM62.1957 25.7273V26.2273H62.7121L62.6954 25.7112L62.1957 25.7273ZM61.2433 25.6685C61.1535 24.91 60.7783 24.3036 60.1397 23.8845L59.5911 24.7206C59.9828 24.9776 60.1952 25.3211 60.2503 25.7861L61.2433 25.6685ZM60.1397 23.8845C59.5271 23.4825 58.7947 23.2955 57.9698 23.2955V24.2955C58.6421 24.2955 59.1735 24.4465 59.5911 24.7206L60.1397 23.8845ZM57.9698 23.2955C57.3692 23.2955 56.8204 23.3926 56.335 23.602L56.7311 24.5202C57.0667 24.3754 57.4757 24.2955 57.9698 24.2955V23.2955ZM56.3333 23.6027C55.8587 23.8094 55.4662 24.1038 55.1773 24.4941L55.9811 25.089C56.1509 24.8595 56.3943 24.6669 56.7327 24.5195L56.3333 23.6027ZM55.1748 24.4975C54.8854 24.8955 54.7411 25.3512 54.7411 25.848H55.7411C55.7411 25.556 55.8223 25.3074 55.9836 25.0856L55.1748 24.4975ZM54.7411 25.848C54.7411 26.2601 54.8402 26.6433 55.0595 26.9749L55.8937 26.4235C55.799 26.2803 55.7411 26.096 55.7411 25.848H54.7411ZM55.065 26.9831C55.266 27.2746 55.5215 27.5164 55.8261 27.708L56.3586 26.8616C56.1641 26.7393 56.0091 26.5907 55.8882 26.4154L55.065 26.9831ZM55.831 27.7111C56.1086 27.8812 56.3999 28.0224 56.7046 28.1344L57.0497 27.1958C56.807 27.1066 56.5751 26.9943 56.3536 26.8585L55.831 27.7111ZM56.7107 28.1366C56.9946 28.2368 57.2594 28.3196 57.5045 28.3841L57.759 27.417C57.5453 27.3608 57.3071 27.2866 57.0435 27.1936L56.7107 28.1366ZM57.5018 28.3834L58.7574 28.7214L59.0174 27.7558L57.7617 27.4178L57.5018 28.3834ZM58.7605 28.7223C59.0619 28.8014 59.4032 28.9122 59.7854 29.0565L60.1386 28.121C59.732 27.9675 59.3569 27.8449 59.0144 27.755L58.7605 28.7223ZM59.787 29.0571C60.1429 29.1902 60.4848 29.3725 60.8132 29.606L61.3927 28.791C60.9967 28.5094 60.578 28.2852 60.137 28.1204L59.787 29.0571ZM60.8184 29.6096C61.1233 29.8207 61.3767 30.0929 61.579 30.4325L62.438 29.9205C62.1655 29.4632 61.8151 29.0834 61.3876 28.7874L60.8184 29.6096ZM61.579 30.4325C61.7601 30.7364 61.8647 31.1318 61.8647 31.6435H62.8647C62.8647 30.9961 62.7318 30.4135 62.438 29.9205L61.579 30.4325ZM61.8647 31.6435C61.8647 32.2189 61.7155 32.7273 61.4201 33.1823L62.2589 33.7268C62.6637 33.1032 62.8647 32.4042 62.8647 31.6435H61.8647ZM61.4187 33.1845C61.1303 33.6338 60.7005 34.0047 60.1033 34.2889L60.533 35.1919C61.2721 34.8402 61.8564 34.3539 62.2603 33.7246L61.4187 33.1845ZM60.1023 34.2894C59.5222 34.5672 58.7933 34.7173 57.8974 34.7173V35.7173C58.901 35.7173 59.786 35.5496 60.5341 35.1914L60.1023 34.2894ZM57.8974 34.7173C57.0646 34.7173 56.3697 34.5829 55.7991 34.3312L55.3956 35.2462C56.1209 35.5661 56.9593 35.7173 57.8974 35.7173V34.7173ZM55.8001 34.3317C55.2272 34.0775 54.7936 33.7317 54.4809 33.3001L53.6711 33.8867C54.0989 34.4773 54.6795 34.9285 55.3945 35.2457L55.8001 34.3317ZM54.4824 33.3022C54.1742 32.8719 53.9952 32.3684 53.9529 31.7769L52.9555 31.8481C53.0098 32.6089 53.2453 33.2926 53.6696 33.8846L54.4824 33.3022ZM53.4542 32.3125H54.9996V31.3125H53.4542V32.3125ZM54.5015 31.8554C54.5497 32.4142 54.7421 32.9073 55.0979 33.305L55.8431 32.6382C55.6517 32.4242 55.5301 32.1445 55.4978 31.7696L54.5015 31.8554ZM55.1026 33.3101C55.4406 33.6776 55.8623 33.9458 56.3548 34.1193L56.6871 33.1761C56.3344 33.0519 56.0558 32.8693 55.8385 32.6331L55.1026 33.3101ZM56.3602 34.1212C56.843 34.2852 57.3566 34.3651 57.8974 34.3651V33.3651C57.4562 33.3651 57.0521 33.3001 56.6817 33.1743L56.3602 34.1212ZM57.8974 34.3651C58.5231 34.3651 59.1017 34.2636 59.6253 34.0505L59.2483 33.1243C58.8623 33.2814 58.4147 33.3651 57.8974 33.3651V34.3651ZM59.6288 34.049C60.1495 33.8324 60.5829 33.5236 60.9088 33.1138L60.126 32.4914C59.9207 32.7496 59.6336 32.964 59.2448 33.1257L59.6288 34.049ZM60.9106 33.1115C61.2489 32.6808 61.4158 32.1763 61.4158 31.6193H60.4158C60.4158 31.9639 60.3171 32.2482 60.1242 32.4936L60.9106 33.1115ZM61.4158 31.6193C61.4158 31.1108 61.2711 30.6506 60.9451 30.2846L60.1984 30.9497C60.3312 31.0989 60.4158 31.3068 60.4158 31.6193H61.4158ZM60.9451 30.2846C60.659 29.9634 60.2932 29.7147 59.8637 29.53L59.4686 30.4487C59.7878 30.5859 60.0256 30.7558 60.1984 30.9497L60.9451 30.2846ZM59.8637 29.53C59.4667 29.3592 59.0407 29.2111 58.5866 29.085L58.3189 30.0485C58.7342 30.1639 59.1171 30.2975 59.4686 30.4487L59.8637 29.53ZM58.5901 29.086L57.0688 28.6513L56.7941 29.6129L58.3154 30.0475L58.5901 29.086ZM57.0696 28.6516C56.1553 28.3887 55.4663 28.0231 54.9748 27.5738L54.3 28.3118C54.9355 28.8928 55.7758 29.3201 56.7933 29.6126L57.0696 28.6516ZM54.9748 27.5738C54.5251 27.1626 54.2923 26.6275 54.2923 25.9205H53.2923C53.2923 26.8796 53.6229 27.6927 54.3 28.3118L54.9748 27.5738ZM54.2923 25.9205C54.2923 25.3241 54.4514 24.8255 54.7582 24.4033L53.9492 23.8155C53.5074 24.4236 53.2923 25.1323 53.2923 25.9205H54.2923ZM54.7578 24.4038C55.0806 23.9608 55.5164 23.6113 56.0799 23.3581L55.6701 22.4459C54.9618 22.7642 54.3834 23.2195 53.9496 23.8149L54.7578 24.4038ZM56.0813 23.3575C56.6488 23.1005 57.2916 22.9673 58.0181 22.9673V21.9673C57.1669 21.9673 56.381 22.124 55.6687 22.4465L56.0813 23.3575ZM58.0181 22.9673C58.7547 22.9673 59.3897 23.0992 59.9338 23.35L60.3525 22.4419C59.6569 22.1212 58.8752 21.9673 58.0181 21.9673V22.9673ZM59.9362 23.3511C60.4876 23.6018 60.9078 23.9371 61.2138 24.3519L62.0185 23.7582C61.6 23.191 61.0382 22.7536 60.35 22.4408L59.9362 23.3511ZM61.2153 24.354C61.5192 24.7614 61.679 25.2197 61.6959 25.7434L62.6954 25.7112C62.6721 24.9872 62.4455 24.3307 62.0169 23.7561L61.2153 24.354ZM62.1957 25.2273H60.7468V26.2273H62.1957V25.2273ZM74.7751 26.5V27H75.3715L75.2675 26.4128L74.7751 26.5ZM73.278 26.5L72.7882 26.6007L72.8703 27H73.278V26.5ZM72.8131 25.3651L72.3971 25.6424L72.3995 25.6459L72.8131 25.3651ZM72.0162 24.544L71.7221 24.9484L71.7281 24.9527L72.0162 24.544ZM70.9839 24.0369L70.8412 24.5161L70.8412 24.5161L70.9839 24.0369ZM67.7662 24.4354L67.502 24.0109L67.5007 24.0117L67.7662 24.4354ZM66.3234 26.1076L65.8738 25.8889L65.8728 25.8909L66.3234 26.1076ZM66.3234 31.5288L65.8728 31.7455L65.8738 31.7474L66.3234 31.5288ZM67.7662 33.201L67.5007 33.6247L67.502 33.6255L67.7662 33.201ZM70.9839 33.5994L70.8412 33.1202L70.8412 33.1202L70.9839 33.5994ZM72.0162 33.0984L72.3069 33.5052L72.3079 33.5045L72.0162 33.0984ZM72.8131 32.2713L72.3979 31.9928L72.3971 31.994L72.8131 32.2713ZM73.278 31.1364V30.6364H72.8711L72.7884 31.0348L73.278 31.1364ZM74.7751 31.1364L75.2674 31.2242L75.3722 30.6364H74.7751V31.1364ZM74.1594 32.8327L73.73 32.5765L73.73 32.5765L74.1594 32.8327ZM73.0486 34.1065L73.3565 34.5004L73.3587 34.4987L73.0486 34.1065ZM71.5574 34.8974L71.4014 34.4223L71.4004 34.4227L71.5574 34.8974ZM66.9875 34.3963L66.7217 34.8198L66.7217 34.8198L66.9875 34.3963ZM65.0496 32.1989L65.4976 31.9768L65.4976 31.9768L65.0496 32.1989ZM65.0496 25.4375L64.6017 25.2154L65.0496 25.4375ZM71.5574 22.739L71.4004 23.2137L71.4014 23.214L71.5574 22.739ZM73.0486 23.5359L72.7384 23.928L72.7406 23.9298L73.0486 23.5359ZM74.1594 24.8036L73.73 25.0599L73.7309 25.0614L74.1594 24.8036ZM74.7751 26H73.278V27H74.7751V26ZM73.7677 26.3993C73.6675 25.9116 73.4892 25.4706 73.2268 25.0842L72.3995 25.6459C72.5798 25.9115 72.7114 26.2271 72.7882 26.6007L73.7677 26.3993ZM73.2291 25.0877C72.9783 24.7115 72.6697 24.393 72.3044 24.1354L71.7281 24.9527C71.9907 25.1378 72.2132 25.3666 72.3971 25.6424L73.2291 25.0877ZM72.3103 24.1397C71.9532 23.8799 71.5576 23.6861 71.1267 23.5577L70.8412 24.5161C71.1668 24.6131 71.4595 24.7574 71.7222 24.9484L72.3103 24.1397ZM71.1267 23.5577C70.7002 23.4307 70.2576 23.3679 69.8007 23.3679V24.3679C70.1648 24.3679 70.511 24.4178 70.8412 24.5161L71.1267 23.5577ZM69.8007 23.3679C68.9632 23.3679 68.1927 23.5809 67.502 24.0109L68.0305 24.8598C68.5552 24.5332 69.141 24.3679 69.8007 24.3679V23.3679ZM67.5007 24.0117C66.8064 24.4468 66.2667 25.0811 65.8738 25.8889L66.7731 26.3263C67.0965 25.6611 67.5187 25.1805 68.0318 24.8591L67.5007 24.0117ZM65.8728 25.8909C65.4777 26.7126 65.2922 27.6949 65.2922 28.8182H66.2922C66.2922 27.8003 66.4608 26.9756 66.774 26.3243L65.8728 25.8909ZM65.2922 28.8182C65.2922 29.9414 65.4777 30.9238 65.8728 31.7454L66.774 31.3121C66.4608 30.6608 66.2922 29.836 66.2922 28.8182H65.2922ZM65.8738 31.7474C66.2667 32.5553 66.8064 33.1895 67.5007 33.6247L68.0318 32.7773C67.5187 32.4558 67.0965 31.9752 66.7731 31.3101L65.8738 31.7474ZM67.502 33.6255C68.1927 34.0555 68.9632 34.2685 69.8007 34.2685V33.2685C69.141 33.2685 68.5552 33.1032 68.0305 32.7765L67.502 33.6255ZM69.8007 34.2685C70.2576 34.2685 70.7002 34.2057 71.1267 34.0786L70.8412 33.1202C70.511 33.2186 70.1648 33.2685 69.8007 33.2685V34.2685ZM71.1267 34.0786C71.556 33.9507 71.9504 33.7599 72.3069 33.5052L71.7256 32.6915C71.4623 32.8796 71.1685 33.0227 70.8412 33.1202L71.1267 34.0786ZM72.3079 33.5045C72.6713 33.2436 72.9789 32.924 73.2291 32.5487L72.3971 31.994C72.2127 32.2706 71.989 32.5024 71.7246 32.6922L72.3079 33.5045ZM73.2284 32.5498C73.489 32.1612 73.6671 31.7217 73.7675 31.238L72.7884 31.0348C72.7117 31.4043 72.5799 31.7213 72.3979 31.9928L73.2284 32.5498ZM73.278 31.6364H74.7751V30.6364H73.278V31.6364ZM74.2829 31.0486C74.1797 31.6272 73.9938 32.1345 73.73 32.5765L74.5887 33.089C74.9206 32.5329 75.1452 31.9093 75.2674 31.2242L74.2829 31.0486ZM73.73 32.5765C73.4624 33.025 73.132 33.403 72.7384 33.7144L73.3587 34.4987C73.8505 34.1097 74.2607 33.6386 74.5887 33.089L73.73 32.5765ZM72.7406 33.7126C72.345 34.022 71.8997 34.2587 71.4014 34.4223L71.7135 35.3724C72.318 35.1738 72.8668 34.8833 73.3565 34.5004L72.7406 33.7126ZM71.4004 34.4227C70.9077 34.5857 70.3755 34.669 69.8007 34.669V35.669C70.4735 35.669 71.1125 35.5713 71.7145 35.3721L71.4004 34.4227ZM69.8007 34.669C68.8317 34.669 67.9877 34.4336 67.2532 33.9728L66.7217 34.8198C67.6294 35.3893 68.6608 35.669 69.8007 35.669V34.669ZM67.2532 33.9728C66.5176 33.5112 65.9315 32.8519 65.4976 31.9768L64.6017 32.421C65.1096 33.4454 65.8153 34.2511 66.7217 34.8198L67.2532 33.9728ZM65.4976 31.9768C65.0679 31.1101 64.8433 30.0625 64.8433 28.8182H63.8433C63.8433 30.1818 64.0896 31.3881 64.6017 32.421L65.4976 31.9768ZM64.8433 28.8182C64.8433 27.5739 65.0679 26.5263 65.4976 25.6596L64.6017 25.2154C64.0896 26.2483 63.8433 27.4545 63.8433 28.8182H64.8433ZM65.4976 25.6596C65.9315 24.7844 66.5176 24.1251 67.2532 23.6636L66.7217 22.8165C65.8153 23.3853 65.1096 24.1909 64.6017 25.2154L65.4976 25.6596ZM67.2532 23.6636C67.9877 23.2028 68.8317 22.9673 69.8007 22.9673V21.9673C68.6608 21.9673 67.6294 22.247 66.7217 22.8165L67.2532 23.6636ZM69.8007 22.9673C70.3755 22.9673 70.9077 23.0507 71.4004 23.2137L71.7145 22.2643C71.1125 22.0651 70.4735 21.9673 69.8007 21.9673V22.9673ZM71.4014 23.214C71.8985 23.3773 72.3431 23.6154 72.7384 23.928L73.3587 23.1437C72.8686 22.7561 72.3191 22.4629 71.7135 22.264L71.4014 23.214ZM72.7406 23.9298C73.133 24.2366 73.4627 24.6119 73.73 25.0599L74.5887 24.5474C74.2604 23.9972 73.8495 23.5274 73.3565 23.142L72.7406 23.9298ZM73.7309 25.0614C73.9937 25.4981 74.1795 26.0046 74.2828 26.5872L75.2675 26.4128C75.1453 25.7237 74.9207 25.0992 74.5878 24.5459L73.7309 25.0614ZM77.1944 35H76.6944V35.5H77.1944V35ZM77.1944 22.6364V22.1364H76.6944V22.6364H77.1944ZM84.6561 22.6364H85.1561V22.1364H84.6561V22.6364ZM84.6561 23.9645V24.4645H85.1561V23.9645H84.6561ZM78.6916 23.9645V23.4645H78.1916V23.9645H78.6916ZM78.6916 28.142H78.1916V28.642H78.6916V28.142ZM84.2697 28.142H84.7697V27.642H84.2697V28.142ZM84.2697 29.4702V29.9702H84.7697V29.4702H84.2697ZM78.6916 29.4702V28.9702H78.1916V29.4702H78.6916ZM78.6916 33.6719H78.1916V34.1719H78.6916V33.6719ZM84.7527 33.6719H85.2527V33.1719H84.7527V33.6719ZM84.7527 35V35.5H85.2527V35H84.7527ZM77.6944 35V22.6364H76.6944V35H77.6944ZM77.1944 23.1364H84.6561V22.1364H77.1944V23.1364ZM84.1561 22.6364V23.9645H85.1561V22.6364H84.1561ZM84.6561 23.4645H78.6916V24.4645H84.6561V23.4645ZM78.1916 23.9645V28.142H79.1916V23.9645H78.1916ZM78.6916 28.642H84.2697V27.642H78.6916V28.642ZM83.7697 28.142V29.4702H84.7697V28.142H83.7697ZM84.2697 28.9702H78.6916V29.9702H84.2697V28.9702ZM78.1916 29.4702V33.6719H79.1916V29.4702H78.1916ZM78.6916 34.1719H84.7527V33.1719H78.6916V34.1719ZM84.2527 33.6719V35H85.2527V33.6719H84.2527ZM84.7527 34.5H77.1944V35.5H84.7527V34.5ZM97.1586 22.6364H97.6586V22.1364H97.1586V22.6364ZM97.1586 35V35.5H97.6586V35H97.1586ZM95.7097 35L95.2989 35.2851L95.4481 35.5H95.7097V35ZM88.9725 25.2926L89.3832 25.0075L89.2341 24.7926H88.9725V25.2926ZM88.8517 25.2926V24.7926H88.3517V25.2926H88.8517ZM88.8517 35V35.5H89.3517V35H88.8517ZM87.3546 35H86.8546V35.5H87.3546V35ZM87.3546 22.6364V22.1364H86.8546V22.6364H87.3546ZM88.8034 22.6364L89.2141 22.3511L89.0649 22.1364H88.8034V22.6364ZM95.5648 32.3679L95.1542 32.6532L95.3034 32.8679H95.5648V32.3679ZM95.6855 32.3679V32.8679H96.1855V32.3679H95.6855ZM95.6855 22.6364V22.1364H95.1855V22.6364H95.6855ZM96.6586 22.6364V35H97.6586V22.6364H96.6586ZM97.1586 34.5H95.7097V35.5H97.1586V34.5ZM96.1205 34.7149L89.3832 25.0075L88.5617 25.5777L95.2989 35.2851L96.1205 34.7149ZM88.9725 24.7926H88.8517V25.7926H88.9725V24.7926ZM88.3517 25.2926V35H89.3517V25.2926H88.3517ZM88.8517 34.5H87.3546V35.5H88.8517V34.5ZM87.8546 35V22.6364H86.8546V35H87.8546ZM87.3546 23.1364H88.8034V22.1364H87.3546V23.1364ZM88.3928 22.9217L95.1542 32.6532L95.9754 32.0826L89.2141 22.3511L88.3928 22.9217ZM95.5648 32.8679H95.6855V31.8679H95.5648V32.8679ZM96.1855 32.3679V22.6364H95.1855V32.3679H96.1855ZM95.6855 23.1364H97.1586V22.1364H95.6855V23.1364ZM99.4782 23.9645H98.9782V24.4645H99.4782V23.9645ZM99.4782 22.6364V22.1364H98.9782V22.6364H99.4782ZM108.751 22.6364H109.251V22.1364H108.751V22.6364ZM108.751 23.9645V24.4645H109.251V23.9645H108.751ZM104.863 23.9645V23.4645H104.363V23.9645H104.863ZM104.863 35V35.5H105.363V35H104.863ZM103.366 35H102.866V35.5H103.366V35ZM103.366 23.9645H103.866V23.4645H103.366V23.9645ZM99.9782 23.9645V22.6364H98.9782V23.9645H99.9782ZM99.4782 23.1364H108.751V22.1364H99.4782V23.1364ZM108.251 22.6364V23.9645H109.251V22.6364H108.251ZM108.751 23.4645H104.863V24.4645H108.751V23.4645ZM104.363 23.9645V35H105.363V23.9645H104.363ZM104.863 34.5H103.366V35.5H104.863V34.5ZM103.866 35V23.9645H102.866V35H103.866ZM103.366 23.4645H99.4782V24.4645H103.366V23.4645Z" fill="black"/>
<defs>
<linearGradient id="paint0_linear_714_206" x1="33.5" y1="15" x2="11.8144" y2="35.885" gradientUnits="userSpaceOnUse">
<stop stop-color="#507AE5"/>
<stop offset="1" stop-color="#4B50E6"/>
</linearGradient>
</defs>
</svg>
