<svg width="94" height="28" viewBox="0 0 94 28" fill="none" xmlns="http://www.w3.org/2000/svg">
<g clip-path="url(#clip0_735_4799)">
<path d="M12.5 0C6.81703 3.43812 7.49997 13.125 7.49997 13.125C7.49997 13.125 5 12.25 5 8.31252C2.01734 10.1285 0 13.619 0 17.5C0 23.299 4.47715 28 10 28C15.5229 28 20 23.299 20 17.5C19.9999 8.96876 12.5 7.21874 12.5 0ZM10.8784 24.382C8.86892 24.9081 6.83369 23.6241 6.33258 21.514C5.83158 19.4041 7.05441 17.267 9.06398 16.7409C13.9155 15.4709 14.5235 12.6062 14.5235 12.6062C14.5235 12.6062 16.9427 22.7944 10.8784 24.382Z" fill="url(#paint0_linear_735_4799)"/>
<path d="M28.2056 20H25.4045L29.6726 7.63636H33.0412L37.3033 20H34.5021L31.4052 10.4616H31.3086L28.2056 20ZM28.0305 15.1403H34.647V17.1808H28.0305V15.1403ZM45.2162 11.1921C45.1679 10.7051 44.9606 10.3268 44.5944 10.0572C44.2281 9.78752 43.7311 9.6527 43.1032 9.6527C42.6766 9.6527 42.3164 9.71307 42.0226 9.83381C41.7288 9.95052 41.5035 10.1135 41.3465 10.3228C41.1936 10.5321 41.1171 10.7695 41.1171 11.0352C41.109 11.2565 41.1553 11.4497 41.2559 11.6147C41.3606 11.7797 41.5035 11.9226 41.6846 12.0433C41.8657 12.16 42.075 12.2627 42.3124 12.3512C42.5499 12.4357 42.8034 12.5082 43.0731 12.5685L44.1839 12.8342C44.7232 12.9549 45.2182 13.1159 45.6689 13.3171C46.1197 13.5183 46.5101 13.7659 46.8401 14.0597C47.1701 14.3535 47.4257 14.6996 47.6068 15.098C47.7919 15.4964 47.8865 15.9532 47.8905 16.4684C47.8865 17.225 47.6933 17.881 47.311 18.4364C46.9327 18.9878 46.3853 19.4164 45.6689 19.7223C44.9566 20.0241 44.0973 20.1751 43.0912 20.1751C42.0931 20.1751 41.2238 20.0221 40.4832 19.7163C39.7467 19.4104 39.1712 18.9576 38.7567 18.358C38.3461 17.7543 38.1308 17.0077 38.1107 16.1183H40.6402C40.6684 16.5328 40.7871 16.8789 40.9964 17.1566C41.2097 17.4303 41.4934 17.6375 41.8476 17.7784C42.2058 17.9152 42.6102 17.9837 43.061 17.9837C43.5037 17.9837 43.8881 17.9193 44.214 17.7905C44.5441 17.6617 44.7996 17.4826 44.9807 17.2532C45.1618 17.0238 45.2524 16.7602 45.2524 16.4624C45.2524 16.1847 45.1699 15.9512 45.0049 15.7621C44.8439 15.5729 44.6064 15.4119 44.2925 15.2791C43.9826 15.1463 43.6023 15.0256 43.1515 14.9169L41.8053 14.5788C40.7629 14.3253 39.9399 13.9289 39.3362 13.3896C38.7325 12.8503 38.4327 12.1238 38.4367 11.2102C38.4327 10.4616 38.6319 9.80765 39.0344 9.24822C39.4408 8.6888 39.9983 8.25213 40.7066 7.93821C41.4149 7.62429 42.2198 7.46733 43.1214 7.46733C44.039 7.46733 44.8399 7.62429 45.5241 7.93821C46.2123 8.25213 46.7475 8.6888 47.1299 9.24822C47.5122 9.80765 47.7094 10.4556 47.7215 11.1921H45.2162ZM83.1824 7.63636V20H80.9246L75.5457 12.2184H75.4552V20H72.8412V7.63636H75.1352L80.4719 15.4119H80.5805V7.63636H83.1824ZM84.8713 9.79155V7.63636H95.0254V9.79155H91.2402V20H88.6564V9.79155H84.8713Z" fill="black"/>
<path d="M60.5575 11.9648H57.9134C57.8651 11.6228 57.7665 11.3189 57.6175 11.0533C57.4686 10.7836 57.2775 10.5542 57.044 10.3651C56.8106 10.1759 56.541 10.031 56.2351 9.9304C55.9332 9.82978 55.6052 9.77947 55.2511 9.77947C54.6112 9.77947 54.0537 9.93845 53.5788 10.2564C53.1039 10.5703 52.7357 11.0291 52.4741 11.6328C52.2125 12.2325 52.0817 12.9609 52.0817 13.8182C52.0817 14.6996 52.2125 15.4401 52.4741 16.0398C52.7397 16.6394 53.11 17.0922 53.5849 17.3981C54.0598 17.704 54.6091 17.8569 55.233 17.8569C55.5831 17.8569 55.9071 17.8106 56.2049 17.718C56.5067 17.6255 56.7744 17.4906 57.0078 17.3136C57.2412 17.1325 57.4344 16.9131 57.5874 16.6555C57.7443 16.398 57.853 16.1042 57.9134 15.7741L60.5575 15.7862C60.4891 16.3537 60.3181 16.901 60.0444 17.4283C59.7747 17.9515 59.4105 18.4203 58.9517 18.8349C58.4969 19.2454 57.9536 19.5714 57.3217 19.8129C56.6939 20.0503 55.9835 20.169 55.1907 20.169C54.0879 20.169 53.1019 19.9195 52.2326 19.4205C51.3673 18.9214 50.6831 18.199 50.18 17.2532C49.681 16.3074 49.4315 15.1624 49.4315 13.8182C49.4315 12.4699 49.685 11.3229 50.1921 10.3771C50.6992 9.43134 51.3874 8.71094 52.2567 8.21591C53.1261 7.71686 54.104 7.46733 55.1907 7.46733C55.9071 7.46733 56.5711 7.56794 57.1829 7.76918C57.7987 7.97041 58.344 8.2642 58.8189 8.65057C59.2938 9.03291 59.6802 9.50178 59.978 10.0572C60.2798 10.6126 60.473 11.2485 60.5575 11.9648ZM62.432 20V7.63636H70.763V9.79155H65.046V12.7376H70.3343V14.8928H65.046V17.8448H70.7871V20H62.432Z" fill="#507AE5"/>
</g>
<defs>
<linearGradient id="paint0_linear_735_4799" x1="17.5" y1="-1.19433e-06" x2="-4.18563" y2="20.885" gradientUnits="userSpaceOnUse">
<stop stop-color="#507AE5"/>
<stop offset="1" stop-color="#4B50E6"/>
</linearGradient>
<clipPath id="clip0_735_4799">
<rect width="94" height="28" fill="white"/>
</clipPath>
</defs>
</svg>
