<svg width="27" height="30" viewBox="0 0 27 30" fill="none" xmlns="http://www.w3.org/2000/svg">
<path fill-rule="evenodd" clip-rule="evenodd" d="M20.1796 1.41723C22.3042 2.32466 23.4978 3.5554 23.4978 4.83871H12.1688L0.839844 4.83871C0.839844 3.5554 2.03343 2.32466 4.15803 1.41722C6.28263 0.509791 9.1642 0 12.1688 0C15.1735 0 18.055 0.509791 20.1796 1.41723ZM4.15809 28.5828C2.03349 27.6753 0.839907 26.4446 0.839907 25.1613H12.1689L23.4979 25.1613C23.4979 26.4446 22.3043 27.6753 20.1797 28.5828C18.0551 29.4902 15.1735 30 12.1689 30C9.16427 30 6.28269 29.4902 4.15809 28.5828ZM20.0996 17.4199H26.897V21.2909H20.0996V17.4199ZM7.63724 8.70996H0.839844V12.5809H7.63724V8.70996ZM13.3008 8.70898H26.8956V12.58H13.3008V8.70898ZM14.4346 21.2899V17.4189H0.839844V21.2899H14.4346Z" fill="white"/>
</svg>
